<svg xmlns="http://www.w3.org/2000/svg" xml:space="preserve" width="64" height="64"><path d="m64 27.987-.001-.019a3.237 3.237 0 0 0-.025-.346c-.004-.04-.011-.08-.017-.12A3 3 0 0 0 61.254 25H3a3 3 0 1 0 0 6h2.658l6.432 25.729.009-.002A2.994 2.994 0 0 0 15 59l.016-.001V59H49a2.993 2.993 0 0 0 2.9-2.275l.01.002L58.342 31H61a3 3 0 0 0 3-3V27.987zM23 50a3 3 0 1 1-6 0V34a3 3 0 1 1 6 0v16zm12 0a3 3 0 1 1-6 0V34a3 3 0 1 1 6 0v16zm12 0a3 3 0 1 1-6 0V34a3 3 0 1 1 6 0v16zM35.383 9.469 42.018 22h6.789L40.686 6.662l-.011.006A2.989 2.989 0 0 0 38 5a3 3 0 0 0-3 3c0 .534.15 1.028.396 1.462l-.013.007zm-6.76 0-.017-.009C28.849 9.026 29 8.533 29 8a3 3 0 0 0-3-3 2.991 2.991 0 0 0-2.674 1.665l-.006-.003L15.2 22h6.789l6.634-12.531z"/></svg>
